<svg xmlns="http://www.w3.org/2000/svg" width="1536" height="256" viewBox="0 0 1536 256" fill="none">

  <path d="M46.489000000000004 7.039999999999999 c2.72 0 4.68 0.84 5.88 2.56 c1.16 1.6 1.72 3.92 1.76 7 c0 3.16 -0.56 5.56 -1.76 7.24 s-3.16 2.52 -5.88 2.52 l-13.68 0.04 l0 12.24 c0 1.24 -0.8 1.4 -1.12 1.4 l-3.68 0 c-0.32 0 -1.12 -0.16 -1.12 -1.4 l0 -16.8 c0 -1.24 0.8 -1.36 1.12 -1.36 l17.44 0 c1 0 1.72 -0.28 2.12 -0.88 c0.44 -0.6 0.64 -1.56 0.64 -2.88 s-0.2 -2.28 -0.64 -2.88 c-0.4 -0.6 -1.12 -0.88 -2.12 -0.88 l-17.44 0 c-0.32 0 -1.12 -0.12 -1.12 -1.36 l0 -3.16 c0 -1.28 0.8 -1.4 1.12 -1.4 l18.48 0 z M90.898 9.96 c0.8 1 1.36 2.32 1.72 3.92 c0.32 1.56 0.52 3.48 0.52 5.68 l0 7.92 c0 2.24 -0.2 4.16 -0.52 5.72 c-0.36 1.6 -0.92 2.92 -1.72 3.96 c-0.8 1 -1.84 1.76 -3.12 2.2 c-1.24 0.44 -2.76 0.68 -4.52 0.68 l-9.76 0 c-1.76 0 -3.28 -0.24 -4.48 -0.68 c-1.28 -0.44 -2.32 -1.2 -3.12 -2.24 c-0.76 -1 -1.36 -2.32 -1.72 -3.92 c-0.36 -1.56 -0.52 -3.48 -0.52 -5.72 l0 -7.92 c0 -2.24 0.16 -4.12 0.52 -5.68 c0.36 -1.6 0.96 -2.92 1.72 -3.92 c0.8 -1 1.84 -1.76 3.12 -2.24 c1.24 -0.44 2.72 -0.68 4.48 -0.68 l9.76 0 c1.76 0 3.28 0.24 4.52 0.68 c1.28 0.48 2.32 1.24 3.12 2.24 z M87.178 18.88 c0 -1.16 -0.04 -2.16 -0.2 -2.96 c-0.12 -0.76 -0.36 -1.36 -0.68 -1.8 c-0.28 -0.4 -0.68 -0.68 -1.2 -0.88 c-0.52 -0.16 -1.2 -0.28 -2.04 -0.28 l-9.36 0 c-0.84 0 -1.52 0.12 -2.04 0.28 c-0.52 0.2 -0.92 0.48 -1.2 0.88 c-0.32 0.44 -0.52 1.04 -0.68 1.8 c-0.12 0.8 -0.2 1.8 -0.2 2.96 l0 9.32 c0 1.16 0.08 2.16 0.2 2.96 c0.16 0.72 0.36 1.36 0.68 1.76 c0.28 0.44 0.68 0.72 1.2 0.88 c0.52 0.2 1.2 0.28 2.04 0.28 l9.36 0 c0.84 0 1.52 -0.08 2.04 -0.28 c0.52 -0.16 0.92 -0.44 1.2 -0.88 c0.32 -0.4 0.56 -1.04 0.68 -1.76 c0.16 -0.8 0.2 -1.8 0.2 -2.96 l0 -9.32 z M130.707 38.28 c0.16 0.24 0.2 0.56 0.16 0.96 c-0.08 0.48 -0.44 0.8 -0.92 0.8 l-4.4 0 c-0.36 0 -0.64 -0.08 -0.84 -0.24 c-0.16 -0.12 -0.28 -0.32 -0.44 -0.56 l-7.24 -12.84 l-8.44 0 l0 12.24 c0 1.24 -0.76 1.4 -1.12 1.4 l-3.64 0 c-0.36 0 -1.16 -0.16 -1.16 -1.4 l0 -16.8 c0 -1.24 0.8 -1.36 1.16 -1.36 l17.4 0 c1.04 0 1.72 -0.28 2.12 -0.88 c0.44 -0.6 0.64 -1.56 0.64 -2.88 s-0.2 -2.28 -0.64 -2.88 c-0.4 -0.6 -1.08 -0.88 -2.12 -0.88 l-17.4 0 c-0.36 0 -1.16 -0.12 -1.16 -1.36 l0 -3.16 c0 -1.28 0.8 -1.4 1.16 -1.4 l18.44 0 c2.72 0 4.72 0.84 5.92 2.56 c1.08 1.64 1.68 3.96 1.76 7 l0 0.24 c-0.08 3.08 -0.68 5.4 -1.76 7 c-1 1.36 -2.52 2.2 -4.48 2.44 z M168.076 7.039999999999999 c0.36 0 1.16 0.12 1.16 1.36 l0 3.12 c0 1.32 -0.8 1.44 -1.16 1.44 l-10.28 0 l0 25.68 c0 1.24 -0.76 1.36 -1.12 1.36 l-3.68 0 c-0.32 0 -1.12 -0.12 -1.12 -1.36 l0 -25.68 l-10.28 0 c-0.36 0 -1.16 -0.12 -1.16 -1.44 l0 -3.12 c0 -1.24 0.8 -1.36 1.16 -1.36 l26.48 0 z M194.60500000000002 10.760000000000002 l11.24 27.72 c0.16 0.36 0.2 0.72 0.12 0.96 c-0.08 0.2 -0.24 0.6 -0.88 0.6 l-4.28 0 c-0.56 0 -0.96 -0.32 -1.16 -0.88 l-9.92 -24.76 l-0.04 -0.08 l-0.16 0 s-0.04 0.04 -0.08 0.12 l-5.12 12.96 l4.96 0 c0.52 0 0.96 0.32 1.16 0.8 l1.44 3.56 c0.12 0.4 0.08 0.84 -0.16 1.16 c-0.2 0.36 -0.6 0.56 -1.04 0.56 l-8.76 0 l-2.28 5.72 c-0.2 0.52 -0.6 0.84 -1.12 0.84 l-4.4 0 c-0.64 0 -0.84 -0.36 -0.88 -0.6 c-0.08 -0.24 -0.04 -0.6 0.08 -0.96 l11.16 -27.72 c0.56 -1.44 1.16 -2.4 1.76 -2.92 c0.16 -0.12 0.36 -0.28 0.6 -0.4 c0.8 -0.56 1.76 -0.84 2.76 -0.84 c2.2 0 4.12 1.48 4.76 3.56 z M238.654 34.08 c0.36 0 1.12 0.16 1.12 1.4 l0 3.16 c0 1.24 -0.76 1.4 -1.12 1.4 l-13.2 0 c-1.76 0 -3.28 -0.24 -4.48 -0.68 c-1.28 -0.44 -2.32 -1.2 -3.12 -2.24 c-0.8 -1 -1.36 -2.32 -1.72 -3.92 c-0.36 -1.56 -0.56 -3.48 -0.56 -5.72 l0 -19.04 c0 -1.28 0.8 -1.4 1.16 -1.4 l3.68 0 c0.32 0 1.12 0.12 1.12 1.4 l0 19.72 c0 1.2 0.04 2.2 0.2 3 c0.12 0.72 0.36 1.32 0.68 1.76 c0.28 0.44 0.68 0.72 1.16 0.88 c0.56 0.2 1.24 0.28 2.08 0.28 l13 0 z" fill="black" transform="scale(7) translate(-24, -6)"></path>

  <!--
<path d="M36.6 7.039999999999999 c1.32 0 2.24 0.44 2.72 1.28 c0.44 0.76 0.64 2.04 0.64 3.88 l0 26.44 c0 1.24 -0.8 1.4 -1.16 1.4 l-3.44 0 c-0.32 0 -1.12 -0.16 -1.12 -1.4 l0 -24.12 l-0.2 0 c-0.04 0 -0.08 0 -0.08 0.08 l-6.88 16.96 c-0.28 0.84 -0.56 1.56 -0.84 2.16 s-0.64 1.08 -0.96 1.48 c-0.36 0.4 -0.8 0.72 -1.28 0.88 c-0.44 0.16 -1 0.24 -1.6 0.24 l-1.64 0 c-0.6 0 -1.12 -0.08 -1.6 -0.24 s-0.88 -0.48 -1.28 -0.88 c-0.32 -0.4 -0.64 -0.88 -0.96 -1.48 c-0.28 -0.6 -0.56 -1.32 -0.84 -2.16 l-6.84 -16.92 c-0.04 -0.12 -0.08 -0.12 -0.12 -0.12 l-0.2 0 l0 24.12 c0 1.24 -0.76 1.4 -1.12 1.4 l-3.44 0 c-0.36 0 -1.16 -0.16 -1.16 -1.4 l0 -26.44 c0 -1.84 0.2 -3.12 0.64 -3.88 c0.48 -0.84 1.4 -1.28 2.76 -1.28 l3.68 0 c0.52 0 1 0.04 1.4 0.16 s0.8 0.32 1.12 0.6 c0.28 0.32 0.56 0.68 0.8 1.16 c0.2 0.48 0.44 1.08 0.68 1.84 l7.04 17.68 c0.04 0.16 0.12 0.16 0.12 0.16 l0.4 0 c0.04 0 0.08 0 0.12 -0.16 l7.08 -17.68 c0.24 -0.76 0.44 -1.36 0.68 -1.84 s0.52 -0.84 0.8 -1.16 c0.32 -0.28 0.68 -0.48 1.08 -0.6 s0.84 -0.16 1.4 -0.16 l3.6 0 z M77.529 38.28 c0.16 0.24 0.2 0.56 0.16 0.96 c-0.08 0.48 -0.44 0.8 -0.92 0.8 l-4.4 0 c-0.36 0 -0.64 -0.08 -0.84 -0.24 c-0.16 -0.12 -0.28 -0.32 -0.44 -0.56 l-7.24 -12.84 l-8.44 0 l0 12.24 c0 1.24 -0.76 1.4 -1.12 1.4 l-3.64 0 c-0.36 0 -1.16 -0.16 -1.16 -1.4 l0 -16.8 c0 -1.24 0.8 -1.36 1.16 -1.36 l17.4 0 c1.04 0 1.72 -0.28 2.12 -0.88 c0.44 -0.6 0.64 -1.56 0.64 -2.88 s-0.2 -2.28 -0.64 -2.88 c-0.4 -0.6 -1.08 -0.88 -2.12 -0.88 l-17.4 0 c-0.36 0 -1.16 -0.12 -1.16 -1.36 l0 -3.16 c0 -1.28 0.8 -1.4 1.16 -1.4 l18.44 0 c2.72 0 4.72 0.84 5.92 2.56 c1.08 1.64 1.68 3.96 1.76 7 l0 0.24 c-0.08 3.08 -0.68 5.4 -1.76 7 c-1 1.36 -2.52 2.2 -4.48 2.44 z M106.41799999999999 26.28 l6.92 12 c0.16 0.2 0.2 0.52 0.16 0.92 c-0.04 0.52 -0.36 0.84 -0.92 0.84 l-4.32 0 c-0.4 0 -0.68 -0.08 -0.84 -0.24 c-0.16 -0.12 -0.32 -0.32 -0.44 -0.56 l-6.24 -10.96 c-0.44 -0.8 -0.88 -1.32 -1.32 -1.56 c-0.48 -0.28 -1.2 -0.4 -2.16 -0.4 l-4.04 0 l0 12.32 c0 1.24 -0.8 1.4 -1.12 1.4 l-3.68 0 c-0.32 0 -1.16 -0.16 -1.16 -1.4 l0 -30.2 c0 -1.28 0.84 -1.4 1.16 -1.4 l3.68 0 c0.32 0 1.12 0.12 1.12 1.4 l0 11.96 l3.68 0 c0.52 0 0.96 -0.04 1.28 -0.08 s0.6 -0.12 0.84 -0.24 c0.2 -0.12 0.44 -0.32 0.64 -0.56 c0.2 -0.28 0.44 -0.6 0.68 -1 l6.04 -10.68 c0.12 -0.28 0.28 -0.44 0.44 -0.56 c0.16 -0.16 0.44 -0.24 0.88 -0.24 l3.96 0 c0.48 0 0.8 0.24 0.92 0.68 c0.04 0.36 0 0.68 -0.12 0.96 l-6.6 11.6 l-1.08 1.8 l-0.76 1.04 c0.8 0.76 1.6 1.84 2.4 3.16 z" fill="black" transform="scale(7) translate(-1,-5)"></path>


<path xmlns="http://www.w3.org/2000/svg" d="M37,14c-1,1.7-2,3.4-2.9,5.2c-0.9,1.7-1.7,3.5-2.5,5.3c0.1,0,0.2,0.1,0.3,0.1c0.5-0.8,1-1.6,1.5-2.4  c3.4-5.1,7.3-9.8,12.4-13.4c2.7-1.9,5.6-3.3,8.8-3.8c5-0.8,9.2,0.6,12.9,4c5,4.6,7.8,10.4,9.5,16.9c1.6,6.2,2,12.4,1.7,18.8  c-0.8,14.3-5.5,27.3-14.4,38.6c-2.8,3.5-6,6.7-9.9,8.9c-7.2,4.1-14.6,3.5-21-2c-5.6-4.8-9.3-10.9-11-18.1c-0.6-2.6-0.7-5.4-0.9-8.1  c-0.5-6.7-0.2-13.3,1.1-19.9c2-10,5.6-19.4,11.8-27.6c0.7-1,1.6-1.9,2.4-2.8C36.8,13.9,36.9,14,37,14z M66,49  c-0.1,0-0.2-0.1-0.2-0.1c0-0.2,0.1-0.4,0.1-0.6c1.4-6.2,2.1-12.5,1.9-18.8c-0.1-3.3-0.7-6.6-2-9.7c-1.2-2.7-3-4.9-5.8-6.1  c-4-1.7-7.8-1-11.3,1.3c-4,2.6-6.9,6.3-9.5,10.3c-2.9,4.6-5,9.5-6.9,14.6c-3,8-5,16.2-4.6,24.9c0.3,5.9,1.7,11.5,4.7,16.7  c4.2,7.4,11.5,9.6,18.1,7.5c0.2-0.1,0.5-0.2,0.7-0.3c-0.3-0.2-0.5-0.2-0.8-0.2c-5.8-0.5-10.3-3-13.6-7.9c-2.3-3.5-3.4-7.4-4-11.5  c0-0.1,0-0.2,0.1-0.5c0.7,1.5,1.3,3,2.1,4.3c1.8,3.4,3.9,6.5,7.1,8.7c2.7,1.9,5.6,2.7,8.8,1.4c1.3-0.5,2.5-1.2,3.6-2.1  c4.9-3.9,8.3-9,11.2-14.4c1.8-3.3,3-6.8,4-10.4c2.3-7.8,3.2-15.8,2-23.9c-0.3-2-0.7-3.9-1.1-5.9c-0.1,0-0.2,0-0.3,0  C70.5,34.3,69.8,41.9,66,49z" fill="white" transform="scale(10)"></path>



    -->
</svg>
